<?xml version="1.0" encoding="utf-8"?>
<!-- Generator: Adobe Illustrator 15.0.2, SVG Export Plug-In  -->
<!DOCTYPE svg PUBLIC "-//W3C//DTD SVG 1.1//EN" "http://www.w3.org/Graphics/SVG/1.1/DTD/svg11.dtd" [
	<!ENTITY ns_flows "http://ns.adobe.com/Flows/1.0/">
]>
<svg version="1.1"
	 xmlns="http://www.w3.org/2000/svg" xmlns:xlink="http://www.w3.org/1999/xlink" xmlns:a="http://ns.adobe.com/AdobeSVGViewerExtensions/3.0/"
	 x="0px" y="0px" width="90px" height="20px" viewBox="0 0 90 20" overflow="visible" enable-background="new 0 0 90 20"
	 xml:space="preserve">
<defs>
</defs>
<path fill="#2D3580" d="M76.65,20.258V2.9h2.792c0.496,0,8.389,0.005,8.389,8.303v9.055h0.103h0.004h2.029H90
	c0-1.627,0-6.829,0-9.055C90,0.45,79.46,0.188,79.46,0.188h-5.119l0.021,20.07h-0.021H76.65z"/>
<path fill="#2D3580" d="M2.33,20.258L2.311,2.9h2.792c0.495,0,8.415,0.005,8.415,8.303v9.055h0.051h2.035h0.083
	c0-1.627,0-6.829,0-9.055C15.687,0.45,5.118,0.188,5.118,0.188H0l0.02,20.07H2.33z"/>
<rect x="43.818" y="0.188" fill="#2D3580" width="2.308" height="20.07"/>
<polygon fill="#2D3580" points="49.881,20.258 52.443,20.258 59.891,5.185 67.335,20.258 69.896,20.258 59.891,0 "/>
<polygon fill="#2D3580" points="22.71,20.258 30.156,5.185 37.604,20.258 40.163,20.258 30.156,0 20.148,20.258 "/>
</svg>
