<?xml version="1.0" encoding="utf-8"?>
<!-- Generator: Adobe Illustrator 15.0.2, SVG Export Plug-In  -->
<!DOCTYPE svg PUBLIC "-//W3C//DTD SVG 1.1//EN" "http://www.w3.org/Graphics/SVG/1.1/DTD/svg11.dtd" [
	<!ENTITY ns_flows "http://ns.adobe.com/Flows/1.0/">
]>
<svg version="1.1"
	 xmlns="http://www.w3.org/2000/svg" xmlns:xlink="http://www.w3.org/1999/xlink" xmlns:a="http://ns.adobe.com/AdobeSVGViewerExtensions/3.0/"
	 x="0px" y="0px" width="25px" height="25px" viewBox="-7.532 0 25 25" overflow="visible" enable-background="new -7.532 0 25 25"
	 xml:space="preserve">
<defs>
</defs>
<path fill="#2D3580" d="M8.455,3.485c-0.588-0.517-1.3-0.885-2.067-1.095V0H3.471v2.416c-0.147,0.043-0.3,0.076-0.439,0.132
	C1.249,3.247,0.004,4.893,0.004,6.55L0,18.461c0,0.302,0.048,1.363,0.673,2.356c0.626,0.997,1.595,1.625,2.889,1.875H3.471V25h2.917
	v-2.347c0.251-0.058,0.495-0.126,0.719-0.215c2.703-1.062,2.824-3.948,2.824-3.978L9.936,6.553C9.936,5.431,9.396,4.312,8.455,3.485
	z M8.858,18.548c-0.003,0.026-0.013,0.074-0.018,0.109c-0.008,0.051-0.014,0.096-0.027,0.16c-0.013,0.067-0.037,0.15-0.058,0.229
	c-0.014,0.053-0.021,0.098-0.04,0.155c-0.029,0.1-0.074,0.212-0.119,0.322c-0.019,0.047-0.029,0.09-0.052,0.139
	c-0.051,0.115-0.121,0.236-0.189,0.355c-0.027,0.048-0.046,0.094-0.076,0.142c-0.075,0.117-0.172,0.231-0.267,0.346
	c-0.04,0.048-0.069,0.099-0.113,0.146c-0.105,0.112-0.235,0.213-0.364,0.314c-0.053,0.042-0.093,0.09-0.149,0.128
	c-0.195,0.135-0.417,0.256-0.667,0.354c-0.507,0.198-1.104,0.299-1.775,0.299c-1.144,0-2.033-0.265-2.683-0.764
	c-0.268-0.206-0.505-0.44-0.687-0.73c-0.111-0.178-0.195-0.358-0.264-0.533c-0.007-0.018-0.016-0.035-0.022-0.053
	c-0.058-0.157-0.098-0.307-0.13-0.447c-0.008-0.036-0.018-0.072-0.024-0.106c-0.024-0.125-0.041-0.238-0.051-0.336
	c-0.003-0.023-0.007-0.052-0.009-0.072c-0.008-0.104-0.012-0.192-0.012-0.244L1.069,6.55c0-1.229,0.967-2.467,2.354-3.011
	c0.477-0.188,0.989-0.285,1.522-0.285c0.286,0,0.568,0.03,0.84,0.083c0.211,0.04,0.417,0.096,0.617,0.166
	c0.063,0.021,0.123,0.051,0.185,0.075c0.151,0.062,0.299,0.131,0.442,0.21c0.063,0.034,0.126,0.069,0.188,0.107
	C7.386,4,7.547,4.115,7.698,4.244c0.017,0.015,0.037,0.026,0.054,0.041c0.71,0.623,1.117,1.449,1.117,2.268v11.889
	C8.868,18.455,8.865,18.491,8.858,18.548z M5.426,0.962v1.272C5.09,2.205,4.763,2.207,4.432,2.239V0.962H5.426z M4.432,24.038
	v-1.245c0.168,0.011,0.335,0.022,0.512,0.022c0.167,0,0.32-0.024,0.482-0.036v1.259H4.432z"/>
</svg>
