<?xml version="1.0" encoding="utf-8"?>
<!-- Generator: Adobe Illustrator 15.0.2, SVG Export Plug-In  -->
<!DOCTYPE svg PUBLIC "-//W3C//DTD SVG 1.1//EN" "http://www.w3.org/Graphics/SVG/1.1/DTD/svg11.dtd" [
	<!ENTITY ns_flows "http://ns.adobe.com/Flows/1.0/">
]>
<svg version="1.1"
	 xmlns="http://www.w3.org/2000/svg" xmlns:xlink="http://www.w3.org/1999/xlink" xmlns:a="http://ns.adobe.com/AdobeSVGViewerExtensions/3.0/"
	 x="0px" y="0px" width="25px" height="25px" viewBox="-1.052 -0.5 25 25"
	 overflow="visible" enable-background="new -1.052 -0.5 25 25" xml:space="preserve">
<defs>
</defs>
<rect x="0.471" y="1.573" fill="#FFFFFF" width="21.955" height="21.957"/>
<path fill="#7F7F83" d="M22.896,24H0V1.102h22.896V24z M0.941,23.059h21.015V2.043H0.941V23.059z"/>
<rect x="1.891" fill="#7F7F82" width="0.941" height="2.477"/>
<rect x="3.543" fill="#7F7F82" width="0.941" height="2.477"/>
<rect x="5.194" fill="#7F7F82" width="0.941" height="2.477"/>
<rect x="6.848" fill="#7F7F82" width="0.94" height="2.477"/>
<rect x="8.499" fill="#7F7F82" width="0.941" height="2.477"/>
<rect x="10.151" fill="#7F7F82" width="0.941" height="2.477"/>
<rect x="11.804" fill="#7F7F82" width="0.94" height="2.477"/>
<rect x="13.456" fill="#7F7F82" width="0.94" height="2.477"/>
<rect x="15.108" fill="#7F7F82" width="0.941" height="2.477"/>
<rect x="16.76" fill="#7F7F82" width="0.941" height="2.477"/>
<rect x="18.412" fill="#7F7F82" width="0.941" height="2.477"/>
<rect x="20.064" fill="#7F7F82" width="0.94" height="2.477"/>
<path fill="#7F7F83" d="M5.293,15.688c0.14,0.159,0.293,0.311,0.462,0.455c0.169,0.144,0.36,0.273,0.574,0.387
	c0.213,0.115,0.452,0.207,0.715,0.275c0.264,0.07,0.56,0.105,0.887,0.105c0.318,0,0.613-0.051,0.887-0.149s0.509-0.241,0.708-0.425
	c0.198-0.184,0.353-0.404,0.462-0.663s0.164-0.546,0.164-0.864c0-0.328-0.062-0.626-0.187-0.895
	c-0.124-0.268-0.32-0.499-0.589-0.693c-0.268-0.193-0.61-0.344-1.028-0.453c-0.417-0.109-0.924-0.164-1.52-0.164v-0.582
	c0.546,0,1.011-0.055,1.394-0.164c0.382-0.108,0.69-0.255,0.924-0.438c0.233-0.185,0.402-0.402,0.507-0.656
	c0.104-0.253,0.156-0.523,0.156-0.812c0-0.537-0.174-0.967-0.521-1.289C8.939,8.339,8.473,8.178,7.886,8.178
	c-0.446,0-0.854,0.102-1.222,0.305c-0.367,0.204-0.69,0.45-0.969,0.738L5.309,8.773c0.327-0.317,0.7-0.591,1.117-0.819
	s0.904-0.343,1.46-0.343c0.368,0,0.711,0.052,1.028,0.156c0.318,0.104,0.594,0.253,0.827,0.447c0.233,0.193,0.418,0.432,0.552,0.715
	s0.201,0.608,0.201,0.977c0,0.626-0.172,1.13-0.515,1.513c-0.343,0.382-0.777,0.663-1.304,0.841v0.061
	c0.298,0.059,0.576,0.161,0.835,0.305c0.258,0.145,0.486,0.32,0.686,0.529c0.198,0.209,0.354,0.449,0.469,0.723
	s0.172,0.579,0.172,0.916c0,0.418-0.074,0.793-0.224,1.125c-0.149,0.334-0.355,0.617-0.618,0.85
	c-0.264,0.234-0.571,0.413-0.924,0.537c-0.354,0.124-0.733,0.186-1.141,0.186c-0.378,0-0.72-0.039-1.028-0.119
	c-0.308-0.079-0.583-0.184-0.827-0.312c-0.243-0.129-0.462-0.273-0.655-0.432c-0.193-0.159-0.365-0.318-0.514-0.477L5.293,15.688z"
	/>
<path fill="#7F7F83" d="M13.013,16.73h2.235V8.833h-1.699V8.386c0.388-0.069,0.732-0.153,1.036-0.253
	c0.303-0.1,0.568-0.214,0.797-0.343h0.536v8.94h2.072v0.582h-4.978V16.73z"/>
</svg>
