<?xml version="1.0" encoding="utf-8"?>
<!-- Generator: Adobe Illustrator 15.0.2, SVG Export Plug-In  -->
<!DOCTYPE svg PUBLIC "-//W3C//DTD SVG 1.1//EN" "http://www.w3.org/Graphics/SVG/1.1/DTD/svg11.dtd" [
	<!ENTITY ns_flows "http://ns.adobe.com/Flows/1.0/">
]>
<svg version="1.1"
	 xmlns="http://www.w3.org/2000/svg" xmlns:xlink="http://www.w3.org/1999/xlink" xmlns:a="http://ns.adobe.com/AdobeSVGViewerExtensions/3.0/"
	 x="0px" y="0px" width="25px" height="25px" viewBox="-4.479 0 25 25" overflow="visible" enable-background="new -4.479 0 25 25"
	 xml:space="preserve">
<defs>
</defs>
<path fill="#F8EA37" d="M6.901,3.777h2.241c0.146,0,0.273,0.053,0.39,0.124l2.229-3.42H4.282l2.266,3.396
	C6.655,3.819,6.771,3.777,6.901,3.777z"/>
<path fill="#7F7F83" d="M9.68,4.554L9.282,4.312c-0.088-0.054-0.126-0.054-0.14-0.054H6.901c-0.031,0-0.072,0.014-0.125,0.042
	L6.391,4.508L3.383,0h9.265L9.68,4.554z M6.901,3.296h2.241c0.066,0,0.133,0.006,0.198,0.018l1.533-2.353H5.181l1.565,2.346
	C6.797,3.3,6.849,3.296,6.901,3.296z"/>
<path fill="#F8EA37" d="M14.804,13.693c-0.506-0.999-0.564-0.96-1.269-2c-0.803-1.194-1.885-2.744-2.772-4.268
	C10.3,6.629,9.9,5.875,9.534,5.162C9.417,5.232,9.289,5.286,9.142,5.286H6.901c-0.165,0-0.306-0.062-0.428-0.149
	c-0.367,0.722-0.777,1.5-1.24,2.302c-0.883,1.537-1.958,3.089-2.752,4.277c-0.692,1.036-0.752,1.006-1.242,1.975
	c-0.507,0.993-0.758,2.121-0.758,3.306c0.011,4.162,3.392,7.532,7.556,7.523c4.16-0.009,7.535-3.391,7.524-7.557
	C15.557,15.793,15.31,14.672,14.804,13.693z"/>
<path fill="#7F7F83" d="M8.02,25c-4.41,0-8.008-3.59-8.02-8.003c0-1.287,0.273-2.473,0.811-3.525
	c0.358-0.708,0.504-0.917,0.796-1.333c0.122-0.172,0.27-0.384,0.475-0.69l0.42-0.626c0.708-1.05,1.587-2.357,2.315-3.623
	c0.397-0.689,0.787-1.414,1.228-2.28l0.253-0.497l0.455,0.323c0.076,0.054,0.122,0.06,0.149,0.06h2.241c0.014,0,0.054,0,0.142-0.054
	l0.441-0.269l0.236,0.459c0.306,0.594,0.72,1.387,1.218,2.243c0.723,1.241,1.564,2.482,2.307,3.578l0.449,0.664
	c0.203,0.3,0.353,0.509,0.474,0.68c0.301,0.421,0.451,0.633,0.825,1.371c0.531,1.028,0.805,2.202,0.808,3.484
	c0.006,2.143-0.825,4.16-2.338,5.679S10.179,24.995,8.038,25H8.02z M6.699,5.748c-0.368,0.713-0.706,1.334-1.05,1.93
	c-0.744,1.294-1.634,2.618-2.35,3.681L2.88,11.982c-0.209,0.314-0.362,0.531-0.486,0.708c-0.282,0.402-0.399,0.568-0.727,1.217
	c-0.469,0.918-0.706,1.956-0.706,3.089c0.01,3.883,3.177,7.042,7.058,7.042v0.481l0.017-0.481c1.884-0.003,3.655-0.741,4.986-2.077
	c1.333-1.337,2.063-3.111,2.059-4.997c-0.004-1.112-0.247-2.167-0.703-3.05c-0.343-0.676-0.462-0.844-0.752-1.25
	c-0.124-0.175-0.277-0.391-0.488-0.7l-0.446-0.662c-0.752-1.108-1.604-2.364-2.343-3.633c-0.41-0.706-0.765-1.367-1.049-1.913
	C9.248,5.763,9.195,5.767,9.142,5.767H6.901C6.833,5.767,6.766,5.76,6.699,5.748z"/>
<path fill="#7F7F83" d="M9.604,18.469c-0.2,0.267-0.427,0.473-0.681,0.621c-0.254,0.148-0.547,0.223-0.88,0.223
	c-0.272,0-0.525-0.05-0.758-0.149s-0.439-0.247-0.622-0.44c-0.181-0.193-0.334-0.427-0.458-0.703
	c-0.124-0.274-0.213-0.591-0.267-0.948H5.358v-0.389l0.535-0.038c-0.005-0.055-0.008-0.108-0.008-0.163c0-0.054,0-0.108,0-0.162
	c0-0.048,0-0.097,0-0.146s0.003-0.097,0.008-0.146H5.358v-0.399l0.582-0.045c0.053-0.357,0.145-0.677,0.271-0.957
	c0.128-0.281,0.287-0.521,0.477-0.717c0.19-0.197,0.411-0.347,0.662-0.448c0.25-0.104,0.524-0.154,0.821-0.154
	c0.272,0,0.525,0.067,0.763,0.204c0.235,0.136,0.432,0.303,0.59,0.503l-0.445,0.427c-0.127-0.157-0.266-0.287-0.417-0.387
	s-0.324-0.149-0.518-0.149c-0.399,0-0.721,0.148-0.966,0.444c-0.245,0.297-0.404,0.708-0.476,1.234h2.305v0.444H6.664
	c-0.005,0.043-0.008,0.085-0.008,0.127c0,0.043,0,0.088,0,0.137c0,0.06,0,0.119,0,0.176c0,0.059,0.003,0.114,0.008,0.169h1.978
	v0.435H6.71c0.078,0.515,0.234,0.916,0.467,1.207c0.233,0.289,0.537,0.436,0.912,0.436c0.224,0,0.419-0.054,0.585-0.163
	c0.166-0.108,0.329-0.27,0.485-0.48L9.604,18.469z"/>
</svg>
