<?xml version="1.0" encoding="utf-8"?>
<!-- Generator: Adobe Illustrator 15.0.2, SVG Export Plug-In  -->
<!DOCTYPE svg PUBLIC "-//W3C//DTD SVG 1.1//EN" "http://www.w3.org/Graphics/SVG/1.1/DTD/svg11.dtd" [
	<!ENTITY ns_flows "http://ns.adobe.com/Flows/1.0/">
]>
<svg version="1.1"
	 xmlns="http://www.w3.org/2000/svg" xmlns:xlink="http://www.w3.org/1999/xlink" xmlns:a="http://ns.adobe.com/AdobeSVGViewerExtensions/3.0/"
	 x="0px" y="0px" width="25px" height="25px" viewBox="-2.264 0 25 25" overflow="visible" enable-background="new -2.264 0 25 25"
	 xml:space="preserve">
<defs>
</defs>
<path fill="#548F36" d="M20.471,10.175l-0.003,0.002C20.441,4.552,15.875,0,10.242,0C4.618,0,0.055,4.54,0.015,10.155L0,10.145
	c0,3.822-0.042,6.92,0.683,6.92c0.311,0,0.473-0.889,0.492-1.053c0.016-0.141,0.167-0.358,0.391-0.252
	c0.064,0.03,0.12,0.084,0.171,0.146c0.025,0.039,0.052,0.078,0.079,0.116c0.154,0.269,0.233,0.653,0.267,0.868
	c0.045,1.975,0.186,3.286,0.629,3.301c0.291,0.008,0.451-0.669,0.54-1.781c0.012-0.094,0.096-0.571,0.398-0.361
	c0.355,0.247,0.404,1.078,0.41,1.305C4.106,22.721,4.258,24.977,4.772,25c0.476,0.02,0.642-2.293,0.7-5.726
	c0.947,0.499,1.981,0.856,3.075,1.04c0.064,1.728,0.222,2.855,0.604,2.846c0.406-0.012,0.613-1.029,0.67-2.672
	c0.011,0.001,0.017-4.746,0.017-4.746c0-0.16,0.131-0.292,0.293-0.292c0,0,0.511-0.103,0.549-0.48
	c0.039-0.378-0.56-0.629-0.56-0.629c-0.161,0-0.292-0.132-0.292-0.292v-1.822c0-0.161-0.133-0.292-0.293-0.292H9.007
	c-0.159,0-0.399-0.076-0.529-0.169l-1.572-1.112c-0.017-0.011-0.034-0.021-0.054-0.031c-0.03,0.88-0.12,1.457-0.374,1.463
	c-0.282,0.006-0.361-0.838-0.383-2.043L5.458,9.406C5.458,9.405,5.458,9.404,5.457,9.402c-0.056,2.265-0.067,4.747-0.414,4.745
	c-0.398-0.004-0.449-3.202-0.454-5.653C4.583,8.486,4.575,8.478,4.571,8.468L3.718,6.703C3.65,6.559,3.592,6.309,3.592,6.147
	l0.652-0.863c0-0.161-0.779-0.397-0.933-0.35L2.969,5.04C4.454,2.965,6.8,1.551,9.483,1.325v1.214c0,0.161,0.106,0.368,0.238,0.459
	l0.548,0.386c0.131,0.092,0.37,0.168,0.531,0.168h0.434c0.16,0,0.292,0.105,0.292,0.236c0,0.129-0.091,0.33-0.201,0.448
	l-1.034,0.224c-0.111,0.116,0.34,0.646,0.502,0.646l0.416,0.001c0.16,0,0.292,0.132,0.292,0.293l0.004,0.708
	c0,0.161,0.239,0.344,0.401,0.344h0.148c0.223,0.017,0.27,0.283,0.27,0.405c0,0.122-0.201,0.236-0.361,0.236c0,0-0.893,0-1.26,0
	v0.824c-0.128,0.098-0.824,0.32-0.824,0.481l-0.062,1.15c0,0.161-0.063,0.544-0.258,0.544c-0.23,0-0.275-0.384-0.275-0.544V8.741
	C9.244,8.386,8.256,8.072,7.771,8.558c-0.779,0.778-0.24,1.65-0.114,1.752l1.163,0.933c0.125,0.101,0.359,0.184,0.52,0.184
	l1.942,0.001c0.161,0,0.409,0.062,0.552,0.136l2.676,1.379c0.143,0.074,0.26,0.268,0.26,0.428l-0.002,0.089
	c0,0.161-0.057,0.412-0.125,0.557l-0.947,1.489c-0.059,0.126-0.182,0.295-0.288,0.411c-0.157,0.653,0.008,3.033-0.438,2.969
	c-0.378-0.054-0.203-1.556-0.279-2.292c0,0-1.959,1.817-2.118,1.952v1.899c3.855-0.122,7.171-2.374,8.808-5.622
	c0.073,1.344,0.217,2.188,0.513,2.178C20.506,16.981,20.471,13.945,20.471,10.175z M13.817,4.618
	c-0.044,0.033-0.103,0.062-0.164,0.087c-0.032,0.822-0.192,1.448-0.386,1.448c-0.205,0-0.375-0.716-0.389-1.623
	c-0.002-0.011-0.006-0.021-0.006-0.031v-0.95c0-0.161-0.133-0.292-0.293-0.292h-0.423c-0.161,0-0.292-0.131-0.292-0.292V1.441
	c1.398,0.258,2.686,0.839,3.775,1.667C15.603,3.234,13.817,4.618,13.817,4.618z M17.71,9.108c0-1.261,0.663-2.634,0.663-2.634
	s0.413,0.87,0.619,1.763c0.204,0.889,0.274,2.13,0.274,2.13S17.71,12.337,17.71,9.108z"/>
</svg>
