<?xml version="1.0" encoding="utf-8"?>
<!-- Generator: Adobe Illustrator 15.0.2, SVG Export Plug-In  -->
<!DOCTYPE svg PUBLIC "-//W3C//DTD SVG 1.1//EN" "http://www.w3.org/Graphics/SVG/1.1/DTD/svg11.dtd" [
	<!ENTITY ns_flows "http://ns.adobe.com/Flows/1.0/">
]>
<svg version="1.1"
	 xmlns="http://www.w3.org/2000/svg" xmlns:xlink="http://www.w3.org/1999/xlink" xmlns:a="http://ns.adobe.com/AdobeSVGViewerExtensions/3.0/"
	 x="0px" y="0px" width="25px" height="25px" viewBox="-2.104 -5.521 25 25"
	 overflow="visible" enable-background="new -2.104 -5.521 25 25" xml:space="preserve">
<defs>
</defs>
<path fill="#212125" d="M0,4.789c0-0.756,0.117-1.43,0.351-2.023C0.584,2.174,0.898,1.672,1.296,1.26
	c0.396-0.41,0.858-0.723,1.386-0.938S3.767,0,4.354,0c0.569,0,1.085,0.119,1.547,0.357s0.847,0.516,1.155,0.834L5.923,2.465
	C5.689,2.25,5.453,2.082,5.216,1.961C4.978,1.84,4.699,1.779,4.383,1.779c-0.317,0-0.614,0.066-0.89,0.203
	c-0.275,0.135-0.516,0.328-0.721,0.58S2.406,3.123,2.289,3.486C2.173,3.852,2.114,4.262,2.114,4.719
	c0,0.943,0.201,1.674,0.603,2.191c0.4,0.518,0.938,0.777,1.609,0.777c0.373,0,0.7-0.076,0.98-0.225
	c0.28-0.15,0.532-0.346,0.756-0.588l1.134,1.246C6.813,8.568,6.378,8.904,5.888,9.129S4.867,9.465,4.299,9.465
	c-0.589,0-1.144-0.102-1.666-0.301c-0.523-0.201-0.98-0.498-1.372-0.889c-0.393-0.393-0.7-0.881-0.924-1.463
	C0.112,6.229,0,5.555,0,4.789z"/>
<path fill="#212125" d="M11.914,9.465c-0.616,0-1.179-0.109-1.688-0.33C9.718,8.916,9.282,8.602,8.918,8.191
	c-0.364-0.412-0.646-0.91-0.847-1.498C7.87,6.105,7.77,5.438,7.77,4.691c0-0.748,0.101-1.412,0.302-1.996
	c0.2-0.582,0.482-1.072,0.847-1.469c0.364-0.398,0.8-0.701,1.309-0.91C10.735,0.105,11.298,0,11.914,0s1.178,0.105,1.687,0.316
	c0.509,0.209,0.945,0.516,1.31,0.916c0.364,0.402,0.646,0.895,0.847,1.477c0.201,0.584,0.301,1.244,0.301,1.982
	c0,0.746-0.1,1.414-0.301,2.002c-0.2,0.588-0.482,1.086-0.847,1.498c-0.364,0.41-0.801,0.725-1.31,0.943
	C13.092,9.355,12.53,9.465,11.914,9.465z M11.914,7.688c0.625,0,1.12-0.27,1.484-0.807c0.363-0.535,0.546-1.266,0.546-2.189
	c0-0.916-0.183-1.629-0.546-2.143c-0.364-0.514-0.859-0.77-1.484-0.77c-0.626,0-1.12,0.256-1.484,0.77
	c-0.363,0.514-0.546,1.227-0.546,2.143c0,0.924,0.183,1.654,0.546,2.189C10.794,7.418,11.288,7.688,11.914,7.688z"/>
<path fill="#212125" d="M17.145,13.273c0.332-0.311,0.636-0.6,0.91-0.869s0.512-0.523,0.71-0.76c0.199-0.236,0.354-0.457,0.466-0.66
	c0.111-0.205,0.167-0.398,0.167-0.584c0-0.256-0.065-0.451-0.196-0.584c-0.13-0.133-0.31-0.199-0.538-0.199
	c-0.19,0-0.359,0.053-0.506,0.158c-0.147,0.105-0.286,0.23-0.417,0.371l-0.652-0.645c0.256-0.271,0.517-0.477,0.783-0.615
	s0.585-0.209,0.955-0.209c0.256,0,0.488,0.039,0.698,0.119c0.209,0.078,0.39,0.189,0.542,0.334s0.27,0.316,0.352,0.518
	c0.081,0.201,0.122,0.428,0.122,0.678c0,0.219-0.046,0.439-0.139,0.666c-0.093,0.225-0.216,0.451-0.371,0.678
	c-0.155,0.225-0.332,0.451-0.531,0.678c-0.198,0.225-0.403,0.447-0.616,0.664c0.131-0.016,0.276-0.031,0.438-0.045
	c0.16-0.014,0.303-0.02,0.428-0.02h1.045v1.012h-3.648V13.273z"/>
</svg>
