<?xml version="1.0" encoding="utf-8"?>
<!-- Generator: Adobe Illustrator 15.0.2, SVG Export Plug-In  -->
<!DOCTYPE svg PUBLIC "-//W3C//DTD SVG 1.1//EN" "http://www.w3.org/Graphics/SVG/1.1/DTD/svg11.dtd" [
	<!ENTITY ns_flows "http://ns.adobe.com/Flows/1.0/">
]>
<svg version="1.1"
	 xmlns="http://www.w3.org/2000/svg" xmlns:xlink="http://www.w3.org/1999/xlink" xmlns:a="http://ns.adobe.com/AdobeSVGViewerExtensions/3.0/"
	 x="0px" y="0px" width="50px" height="50px" viewBox="0 0 50 50" overflow="visible" enable-background="new 0 0 50 50"
	 xml:space="preserve">
<defs>
</defs>
<circle fill="#FFFFFF" cx="25" cy="25" r="25"/>
<g>
	<g>
		<path fill="#CD4D3E" d="M6.909,16.062h2.676c0.408,0,0.786,0.03,1.134,0.09c0.348,0.061,0.652,0.166,0.912,0.318
			c0.26,0.152,0.464,0.353,0.612,0.6c0.148,0.248,0.222,0.561,0.222,0.937c0,0.176-0.026,0.352-0.078,0.528
			c-0.052,0.176-0.13,0.34-0.234,0.491c-0.104,0.152-0.24,0.288-0.408,0.408c-0.168,0.12-0.364,0.208-0.588,0.264v0.049
			c0.56,0.104,0.982,0.304,1.266,0.6c0.284,0.296,0.426,0.708,0.426,1.236c0,0.399-0.078,0.744-0.234,1.031
			c-0.156,0.288-0.372,0.526-0.648,0.715c-0.276,0.188-0.598,0.328-0.966,0.42c-0.368,0.092-0.764,0.138-1.188,0.138H6.909V16.062z
			 M9.501,19.219c0.432,0,0.746-0.086,0.942-0.258c0.196-0.172,0.294-0.406,0.294-0.702s-0.1-0.508-0.3-0.636
			c-0.2-0.128-0.508-0.192-0.924-0.192h-0.84v1.788H9.501z M9.669,22.519c0.968,0,1.452-0.355,1.452-1.067
			c0-0.345-0.12-0.595-0.36-0.75c-0.24-0.156-0.604-0.234-1.092-0.234H8.673v2.052H9.669z"/>
	</g>
</g>
<polygon fill="#CFD1D3" points="39.238,32.366 17.029,32.366 17.029,38.888 39.238,38.888 42.049,35.627 "/>
<polygon fill="#CFD1D3" points="33.615,24.539 17.029,24.539 17.029,31.062 33.615,31.062 36.426,27.8 "/>
<polygon fill="#CD4D3E" points="27.994,16.714 17.029,16.714 17.029,23.235 27.994,23.235 30.803,19.975 "/>
<polygon fill="#CFD1D3" points="22.37,8.888 17.029,8.888 17.029,15.41 22.37,15.41 25.182,12.148 "/>
</svg>
