<?xml version="1.0" encoding="utf-8"?>
<!-- Generator: Adobe Illustrator 15.0.2, SVG Export Plug-In  -->
<!DOCTYPE svg PUBLIC "-//W3C//DTD SVG 1.1//EN" "http://www.w3.org/Graphics/SVG/1.1/DTD/svg11.dtd" [
	<!ENTITY ns_flows "http://ns.adobe.com/Flows/1.0/">
]>
<svg version="1.1"
	 xmlns="http://www.w3.org/2000/svg" xmlns:xlink="http://www.w3.org/1999/xlink" xmlns:a="http://ns.adobe.com/AdobeSVGViewerExtensions/3.0/"
	 x="0px" y="0px" width="25px" height="25px" viewBox="-6.055 -0.87 25 25"
	 overflow="visible" enable-background="new -6.055 -0.87 25 25" xml:space="preserve">
<defs>
</defs>
<path fill="#2D3580" d="M10.853,9.862c0.889-1.045,1.428-2.396,1.428-3.872C12.28,2.688,9.593,0,6.29,0
	C2.988,0,0.302,2.688,0.302,5.99c0,1.48,0.542,2.835,1.436,3.881L0,23.26l6.306-4.839l6.585,4.802L10.853,9.862z M6.29,2
	c2.2,0,3.99,1.79,3.99,3.99S8.49,9.98,6.29,9.98c-2.199,0-3.988-1.79-3.988-3.99S4.091,2,6.29,2z M6.274,15.924l-3.671,2.817
	l0.962-7.423c0.818,0.42,1.743,0.663,2.725,0.663c0.995,0,1.933-0.248,2.76-0.679l1.14,7.477L6.274,15.924z"/>
</svg>
