<?xml version="1.0" encoding="utf-8"?>
<!-- Generator: Adobe Illustrator 15.0.2, SVG Export Plug-In  -->
<!DOCTYPE svg PUBLIC "-//W3C//DTD SVG 1.1//EN" "http://www.w3.org/Graphics/SVG/1.1/DTD/svg11.dtd" [
	<!ENTITY ns_flows "http://ns.adobe.com/Flows/1.0/">
]>
<svg version="1.1"
	 xmlns="http://www.w3.org/2000/svg" xmlns:xlink="http://www.w3.org/1999/xlink" xmlns:a="http://ns.adobe.com/AdobeSVGViewerExtensions/3.0/"
	 x="0px" y="0px" width="25px" height="25px" viewBox="0 0 25 25" overflow="visible" enable-background="new 0 0 25 25"
	 xml:space="preserve">
<defs>
</defs>
<path fill="#FAEA77" d="M12.5,0C5.596,0,0,5.596,0,12.5C0,19.403,5.596,25,12.5,25C19.403,25,25,19.403,25,12.5
	C25,5.596,19.403,0,12.5,0z M14.662,16.667c-0.381,0.222-0.821,0.331-1.32,0.331c-0.407,0-0.785-0.073-1.134-0.224
	c-0.349-0.149-0.66-0.369-0.931-0.66c-0.273-0.288-0.5-0.641-0.687-1.052c-0.186-0.412-0.321-0.886-0.402-1.421H9.319v-0.584
	l0.802-0.055c-0.009-0.082-0.015-0.163-0.015-0.245s0-0.163,0-0.245c0-0.072,0-0.144,0-0.218c0-0.072,0.006-0.144,0.015-0.216H9.319
	v-0.6l0.869-0.068c0.081-0.535,0.217-1.013,0.407-1.434c0.192-0.421,0.429-0.779,0.715-1.074c0.284-0.294,0.616-0.519,0.992-0.673
	C12.678,8.078,13.09,8,13.533,8c0.408,0,0.788,0.103,1.142,0.305c0.354,0.205,0.647,0.458,0.884,0.755l-0.667,0.64
	c-0.189-0.236-0.398-0.429-0.624-0.577c-0.228-0.149-0.486-0.226-0.775-0.226c-0.598,0-1.081,0.222-1.447,0.666
	c-0.368,0.446-0.605,1.062-0.715,1.85h3.455v0.667h-3.507c-0.01,0.062-0.013,0.127-0.013,0.189s0,0.131,0,0.203
	c0,0.091,0,0.18,0,0.265c0,0.088,0.003,0.171,0.013,0.252h2.962v0.652h-2.895c0.118,0.77,0.351,1.373,0.7,1.808
	c0.349,0.437,0.804,0.652,1.365,0.652c0.336,0,0.628-0.082,0.878-0.244c0.248-0.163,0.491-0.402,0.727-0.722l0.666,0.601
	C15.383,16.134,15.041,16.445,14.662,16.667z"/>
</svg>
