<?xml version="1.0" encoding="utf-8"?>
<!-- Generator: Adobe Illustrator 15.0.2, SVG Export Plug-In  -->
<!DOCTYPE svg PUBLIC "-//W3C//DTD SVG 1.1//EN" "http://www.w3.org/Graphics/SVG/1.1/DTD/svg11.dtd" [
	<!ENTITY ns_flows "http://ns.adobe.com/Flows/1.0/">
]>
<svg version="1.1"
	 xmlns="http://www.w3.org/2000/svg" xmlns:xlink="http://www.w3.org/1999/xlink" xmlns:a="http://ns.adobe.com/AdobeSVGViewerExtensions/3.0/"
	 x="0px" y="0px" width="25px" height="25px" viewBox="-5.176 -5.167 25 25"
	 overflow="visible" enable-background="new -5.176 -5.167 25 25" xml:space="preserve">
<defs>
</defs>
<path fill="#2D3580" d="M2.901,14.336c-0.206,0.205-0.5,0.33-0.804,0.33s-0.598-0.125-0.812-0.33l-0.946-0.965
	C0.125,13.166,0,12.871,0,12.568c0-0.305,0.125-0.599,0.339-0.812l6.079-6.079c0.464,1.17,1.401,2.106,2.571,2.571L2.901,14.336z
	 M2.669,11.426c-0.312,0-0.571,0.258-0.571,0.57s0.259,0.572,0.571,0.572s0.571-0.26,0.571-0.572S2.981,11.426,2.669,11.426z
	 M14.442,5.311c-0.562,1.589-2.088,2.688-3.775,2.688c-2.205,0-3.999-1.795-3.999-3.999C6.668,1.794,8.462,0,10.667,0
	c0.651,0,1.5,0.196,2.044,0.562c0.09,0.062,0.143,0.143,0.143,0.25c0,0.098-0.062,0.196-0.143,0.249L10.096,2.57v2l1.723,0.955
	c0.295-0.17,2.365-1.473,2.544-1.473s0.286,0.134,0.286,0.312C14.648,4.659,14.541,5.025,14.442,5.311z"/>
</svg>
