<?xml version="1.0" encoding="utf-8"?>
<!-- Generator: Adobe Illustrator 15.0.2, SVG Export Plug-In  -->
<!DOCTYPE svg PUBLIC "-//W3C//DTD SVG 1.1//EN" "http://www.w3.org/Graphics/SVG/1.1/DTD/svg11.dtd" [
	<!ENTITY ns_flows "http://ns.adobe.com/Flows/1.0/">
]>
<svg version="1.1"
	 xmlns="http://www.w3.org/2000/svg" xmlns:xlink="http://www.w3.org/1999/xlink" xmlns:a="http://ns.adobe.com/AdobeSVGViewerExtensions/3.0/"
	 x="0px" y="0px" width="25px" height="25px" viewBox="-4.166 0 25 25" overflow="visible" enable-background="new -4.166 0 25 25"
	 xml:space="preserve">
<defs>
</defs>
<path fill="#A4D5F5" d="M16.668,16.648C16.677,21.25,12.951,24.99,8.351,25C3.748,25.01,0.008,21.287,0,16.684
	c-0.006-1.311,0.275-2.559,0.835-3.654c0.541-1.072,0.608-1.039,1.374-2.184c0.877-1.314,2.063-3.029,3.045-4.727
	C7.057,2.986,8.295,0,8.295,0s1.242,2.963,3.07,6.104c0.977,1.686,2.176,3.396,3.067,4.717c0.776,1.148,0.837,1.107,1.397,2.213
	C16.389,14.115,16.664,15.354,16.668,16.648z"/>
</svg>
