<?xml version="1.0" encoding="utf-8"?>
<!-- Generator: Adobe Illustrator 15.0.2, SVG Export Plug-In  -->
<!DOCTYPE svg PUBLIC "-//W3C//DTD SVG 1.1//EN" "http://www.w3.org/Graphics/SVG/1.1/DTD/svg11.dtd" [
	<!ENTITY ns_flows "http://ns.adobe.com/Flows/1.0/">
]>
<svg version="1.1"
	 xmlns="http://www.w3.org/2000/svg" xmlns:xlink="http://www.w3.org/1999/xlink" xmlns:a="http://ns.adobe.com/AdobeSVGViewerExtensions/3.0/"
	 x="0px" y="0px" width="25px" height="25px" viewBox="-4.164 -2.5 25 25"
	 overflow="visible" enable-background="new -4.164 -2.5 25 25" xml:space="preserve">
<defs>
</defs>
<path fill="#2D3580" d="M16.338,18.932h-4.625v-1.807h4.625c0.184,0,0.334-0.15,0.334-0.336s-0.15-0.335-0.334-0.335h-4.625v-0.062
	c0-0.186-0.15-0.336-0.334-0.336h-1.74v-0.795c0.199-0.038,0.4-0.08,0.596-0.133c1.986-0.531,3.646-1.806,4.672-3.585
	c1.027-1.779,1.301-3.853,0.77-5.839C14.778,2.346,11.719,0,8.25,0C7.577,0,6.906,0.089,6.251,0.264
	C4.268,0.797,2.608,2.069,1.58,3.849c-1.031,1.78-1.303,3.854-0.769,5.84c0.778,2.901,3.164,5.044,6.038,5.573v0.795h-1.74
	c-0.187,0-0.335,0.15-0.335,0.336v0.062H0.335C0.151,16.454,0,16.604,0,16.789s0.151,0.336,0.335,0.336h4.439v1.807H0.335
	C0.151,18.932,0,19.082,0,19.268s0.151,0.334,0.335,0.334h4.439v0.062C4.774,19.85,4.923,20,5.109,20h6.27
	c0.184,0,0.334-0.15,0.334-0.336v-0.062h4.625c0.184,0,0.334-0.148,0.334-0.334S16.522,18.932,16.338,18.932z M1.459,9.515
	C0.973,7.702,1.223,5.81,2.16,4.184c0.938-1.625,2.452-2.787,4.266-3.272c0.598-0.16,1.21-0.24,1.824-0.24
	c3.17,0,5.958,2.142,6.78,5.208c0.486,1.813,0.236,3.707-0.701,5.331c-0.939,1.624-2.455,2.786-4.268,3.272
	C9.62,14.6,9.165,14.676,8.71,14.705c-0.493,0.031-0.991,0.01-1.474-0.064c-0.009-0.001-0.015,0.002-0.021,0.001
	C4.483,14.238,2.188,12.245,1.459,9.515z M8.965,15.359v0.695H7.52v-0.699c0.236,0.023,0.479,0.037,0.72,0.037
	c0.206,0,0.409-0.012,0.612-0.029C8.891,15.361,8.928,15.363,8.965,15.359z M6.131,19.328H5.444v-2.602h0.687V19.328z M9.684,19.328
	H6.805v-2.602h2.879V19.328z M11.043,19.328h-0.691v-2.602h0.691V19.328z"/>
</svg>
